<?xml version="1.0" encoding="UTF-8" standalone="no"?>
<!DOCTYPE svg PUBLIC "-//W3C//DTD SVG 1.1//EN" "http://www.w3.org/Graphics/SVG/1.1/DTD/svg11.dtd">
<!-- Generated by Microsoft Visio, SVG Export XfmrSat_network.svg XfmrSatCase -->
<svg xmlns="http://www.w3.org/2000/svg" xmlns:xlink="http://www.w3.org/1999/xlink" xmlns:ev="http://www.w3.org/2001/xml-events"
		xmlns:v="http://schemas.microsoft.com/visio/2003/SVGExtensions/" width="5.31771in" height="1.54137in"
		viewBox="0 0 382.875 110.979" xml:space="preserve" color-interpolation-filters="sRGB" class="st13">
	<v:documentProperties v:langID="1033" v:viewMarkup="false">
		<v:userDefs>
			<v:ud v:nameU="msvNoAutoConnect" v:val="VT0(1):26"/>
		</v:userDefs>
	</v:documentProperties>

	<style type="text/css">
	<![CDATA[
		.st1 {fill:none}
		.st2 {stroke:#000000;stroke-linecap:round;stroke-linejoin:round;stroke-width:0.75}
		.st3 {fill:#1a1a1a;stroke:#000000;stroke-linecap:round;stroke-linejoin:round;stroke-width:0.75}
		.st4 {stroke:#000000;stroke-linecap:round;stroke-linejoin:round;stroke-width:1.2}
		.st5 {fill:none;stroke:none;stroke-linecap:round;stroke-linejoin:round;stroke-width:0.75}
		.st6 {fill:#000000;font-family:Calibri;font-size:0.833336em;font-weight:bold}
		.st7 {fill:#000000;font-family:Calibri;font-size:0.666664em}
		.st8 {font-size:1em}
		.st9 {baseline-shift:-33.3488%;font-size:0.666976em}
		.st10 {marker-end:url(#mrkr5-82);stroke:#ff0000;stroke-linecap:round;stroke-linejoin:round;stroke-width:0.75}
		.st11 {fill:#ff0000;fill-opacity:1;stroke:#ff0000;stroke-opacity:1;stroke-width:0.22935779816514}
		.st12 {fill:#ff0000;font-family:Calibri;font-size:0.666664em}
		.st13 {fill:none;fill-rule:evenodd;font-size:12px;overflow:visible;stroke-linecap:square;stroke-miterlimit:3}
	]]>
	</style>

	<defs id="Markers">
		<g id="lend5">
			<path d="M 2 1 L 0 0 L 1.98117 -0.993387 C 1.67173 -0.364515 1.67301 0.372641 1.98465 1.00043 " style="stroke:none"/>
		</g>
		<marker id="mrkr5-82" class="st11" v:arrowType="5" v:arrowSize="2" v:setback="7.63" refX="-7.63" orient="auto"
				markerUnits="strokeWidth" overflow="visible">
			<use xlink:href="#lend5" transform="scale(-4.36,-4.36) "/>
		</marker>
	</defs>
	<g v:mID="33" v:index="7" v:groupContext="foregroundPage">
		<title>XfmrSatCase</title>
		<v:pageProperties v:drawingScale="1" v:pageScale="1" v:drawingUnits="19" v:shadowOffsetX="9" v:shadowOffsetY="-9"/>
		<g id="shape1-1" v:mID="1" v:groupContext="shape" transform="translate(46.2,-25.4785)">
			<title>Source</title>
			<path d="M0 101.98 A9 9 0 0 1 18 101.98 A9 9 0 1 1 0 101.98 Z" class="st1"/>
			<path d="M0 101.98 A9 9 0 0 1 18 101.98 A9 9 0 1 1 0 101.98" class="st2"/>
			<path d="M1.97 101.98 A3.375 2.25 0 0 1 5.34 99.73 A3.375 2.25 0 0 1 8.72 101.98 A3.375 2.25 -180 0 0 12.09 104.23 A3.375
						 2.25 -180 0 0 15.47 101.98" class="st2"/>
			<path d="M9 74.98 L9 92.98" class="st2"/>
		</g>
		<g id="shape2-6" v:mID="2" v:groupContext="shape" transform="translate(88.95,-60.3535)">
			<title>Node</title>
			<path d="M0 108.73 A2.25 2.25 0 0 1 4.5 108.73 A2.25 2.25 0 1 1 0 108.73 Z" class="st3"/>
		</g>
		<g id="shape3-8" v:mID="3" v:groupContext="shape" transform="translate(91.2,-53.6035)">
			<title>Direct</title>
			<path d="M0 101.98 L144 101.98" class="st4"/>
		</g>
		<g id="shape4-11" v:mID="4" v:groupContext="shape" transform="translate(166.179,43.3125) rotate(90)">
			<title>Inductor</title>
			<v:custProps>
				<v:cp v:nameU="DisplayResults" v:lbl="Display Results" v:prompt="Controls display of Q" v:type="3" v:langID="1033"
						v:val="VT0(1):26"/>
				<v:cp v:nameU="Circuit" v:lbl="Circuit" v:prompt="Circuit number" v:type="1" v:format="1;2;3;4;5;6;7;8;9"
						v:langID="1033" v:val="VT0(1):26"/>
			</v:custProps>
			<path d="M0 89.6 A3.375 3.375 0 0 1 3.38 86.23" class="st2"/>
			<path d="M3.38 79.48 A3.375 3.375 -90 0 0 0 82.85 A3.375 3.375 -180 0 0 3.38 86.23" class="st2"/>
			<path d="M3.38 92.98 A3.375 3.375 0 0 1 -0 89.6" class="st2"/>
			<path d="M3.38 92.98 A3.375 3.375 -90 0 0 -0 96.35 A3.375 3.375 -180 0 0 3.38 99.73" class="st2"/>
			<path d="M3.38 99.73 A3.375 3.375 -90 0 0 -0 103.1 A3.375 3.375 -180 0 0 3.38 106.48" class="st2"/>
			<path d="M5.62 79.48 L3.37 79.48" class="st2"/>
			<path d="M5.63 86.23 L3.38 86.23" class="st2"/>
			<path d="M5.63 92.98 L3.38 92.98" class="st2"/>
			<path d="M5.63 99.73 L3.38 99.73" class="st2"/>
			<path d="M5.63 106.48 L3.38 106.48" class="st2"/>
			<path d="M5.62 79.48 L5.62 74.98" class="st2"/>
			<path d="M5.63 110.98 L5.63 106.48" class="st2"/>
		</g>
		<g id="shape5-25" v:mID="5" v:groupContext="shape" transform="translate(232.95,-60.3535)">
			<title>Node.5</title>
			<path d="M0 108.73 A2.25 2.25 0 0 1 4.5 108.73 A2.25 2.25 0 1 1 0 108.73 Z" class="st3"/>
		</g>
		<g id="shape7-27" v:mID="7" v:groupContext="shape" transform="translate(305.288,-60)">
			<title>Node.7</title>
			<path d="M0 108.73 A2.25 2.25 0 0 1 4.5 108.73 A2.25 2.25 0 1 1 0 108.73 Z" class="st3"/>
		</g>
		<g id="shape8-29" v:mID="8" v:groupContext="shape" transform="translate(306.413,-54.375)">
			<title>Switch</title>
			<path d="M0 103.1 L11.7 103.1 L24.3 95.23" class="st2"/>
			<path d="M22.72 103.1 L36 103.1" class="st2"/>
		</g>
		<g id="shape9-33" v:mID="9" v:groupContext="shape" transform="translate(340.163,-60)">
			<title>Node.9</title>
			<path d="M0 108.73 A2.25 2.25 0 0 1 4.5 108.73 A2.25 2.25 0 1 1 0 108.73 Z" class="st3"/>
		</g>
		<g id="shape10-35" v:mID="10" v:groupContext="shape" transform="translate(333.413,-26.25)">
			<title>Load</title>
			<v:custProps>
				<v:cp v:nameU="DisplayResults" v:lbl="Display Results" v:prompt="Controls display of P and Q" v:type="3"
						v:langID="1033" v:val="VT0(1):26"/>
				<v:cp v:nameU="Circuit" v:lbl="Circuit" v:prompt="Circuit number" v:type="1" v:format="1;2;3;4;5;6;7;8;9"
						v:langID="1033" v:val="VT0(1):26"/>
			</v:custProps>
			<path d="M9 74.98 L9 97.48 L18 97.48 L9 110.98 L0 97.48 L9 97.48" class="st2"/>
		</g>
		<g id="shape11-38" v:mID="11" v:groupContext="shape" transform="translate(84.075,-70.1035)">
			<title>Sheet.11</title>
			<desc>1</desc>
			<v:textBlock v:margins="rect(4,4,4,4)"/>
			<v:textRect cx="6.75" cy="107.604" width="13.5" height="6.75"/>
			<rect x="0" y="104.229" width="13.5" height="6.75" class="st5"/>
			<text x="4.22" y="110.6" class="st6" v:langID="1033"><v:paragraph v:horizAlign="1"/><v:tabList/>1</text>		</g>
		<g id="shape12-41" v:mID="12" v:groupContext="shape" transform="translate(228.45,-68.9785)">
			<title>Sheet.12</title>
			<desc>2</desc>
			<v:textBlock v:margins="rect(4,4,4,4)"/>
			<v:textRect cx="6.75" cy="107.604" width="13.5" height="6.75"/>
			<rect x="0" y="104.229" width="13.5" height="6.75" class="st5"/>
			<text x="4.22" y="110.6" class="st6" v:langID="1033"><v:paragraph v:horizAlign="1"/><v:tabList/>2</text>		</g>
		<g id="shape13-44" v:mID="13" v:groupContext="shape" transform="translate(335.25,-68.625)">
			<title>Sheet.13</title>
			<desc>5</desc>
			<v:textBlock v:margins="rect(4,4,4,4)"/>
			<v:textRect cx="6.75" cy="107.604" width="13.5" height="6.75"/>
			<rect x="0" y="104.229" width="13.5" height="6.75" class="st5"/>
			<text x="4.22" y="110.6" class="st6" v:langID="1033"><v:paragraph v:horizAlign="1"/><v:tabList/>5</text>		</g>
		<g id="shape14-47" v:mID="14" v:groupContext="shape" transform="translate(300.788,-68.625)">
			<title>Sheet.14</title>
			<desc>4</desc>
			<v:textBlock v:margins="rect(4,4,4,4)"/>
			<v:textRect cx="6.75" cy="107.604" width="13.5" height="6.75"/>
			<rect x="0" y="104.229" width="13.5" height="6.75" class="st5"/>
			<text x="4.22" y="110.6" class="st6" v:langID="1033"><v:paragraph v:horizAlign="1"/><v:tabList/>4</text>		</g>
		<g id="shape15-50" v:mID="15" v:groupContext="shape" transform="translate(301.725,-18)">
			<title>Sheet.15</title>
			<desc>400 MW</desc>
			<v:textBlock v:margins="rect(4,4,4,4)"/>
			<v:textRect cx="20.025" cy="100.979" width="40.05" height="20"/>
			<rect x="0" y="90.9785" width="40.05" height="20" class="st5"/>
			<text x="4" y="103.38" class="st7" v:langID="1033"><v:paragraph/><v:tabList/>400 MW</text>		</g>
		<g id="shape16-53" v:mID="16" v:groupContext="shape" transform="translate(66.6375,-22.8535)">
			<title>Sheet.16</title>
			<desc>345 Kv Swing Bus 100 MVA base</desc>
			<v:textBlock v:margins="rect(4,4,4,4)"/>
			<v:textRect cx="37.6875" cy="100.979" width="75.38" height="20"/>
			<rect x="0" y="90.9785" width="75.375" height="20" class="st5"/>
			<text x="4" y="93.78" class="st7" v:langID="1033"><v:paragraph/><v:tabList/>345 Kv<v:newlineChar/><tspan x="4"
						dy="1.2em" class="st8">Swing Bus<v:newlineChar/></tspan><tspan x="4" dy="1.2em" class="st8">100 MVA base</tspan></text>		</g>
		<g id="shape17-58" v:mID="17" v:groupContext="shape" transform="translate(104.325,-64.6035)">
			<title>Sheet.17</title>
			<desc>Z1=0.016803+j0.15837 pu B1=2.49 pu ≈500 km</desc>
			<v:textBlock v:margins="rect(4,4,4,4)"/>
			<v:textRect cx="49.5" cy="100.979" width="99" height="20"/>
			<rect x="0" y="90.9785" width="99" height="20" class="st5"/>
			<text x="4" y="98.58" class="st7" v:langID="1033"><v:paragraph/><v:tabList/>Z<tspan dy="-0.289em" class="st9"
						v:baseFontSize="8">1</tspan><tspan dy="0.193em" class="st8">=0.016803+j0.15837 pu<v:newlineChar/></tspan><tspan
						x="4" dy="1.2em" class="st8">B</tspan><tspan dy="-0.289em" class="st9" v:baseFontSize="8">1</tspan><tspan
						dy="0.193em" class="st8">=2.49 pu           </tspan>≈500 km  </text>		</g>
		<g id="shape19-66" v:mID="19" v:groupContext="shape" transform="translate(184.341,-18)">
			<title>Sheet.19</title>
			<desc>500 MVA, 345/138 kV Y-Y Zt=0.01+j0.08 pu on 500 MVA Imag=0.01...</desc>
			<v:textBlock v:margins="rect(4,4,4,4)"/>
			<v:textRect cx="53.3672" cy="96.3535" width="106.74" height="29.25"/>
			<rect x="0" y="81.7285" width="106.734" height="29.25" class="st5"/>
			<text x="4" y="89.15" class="st7" v:langID="1033"><v:paragraph/><v:tabList/>500 MVA, 345/138 kV Y-Y<v:newlineChar/><tspan
						x="4" dy="1.2em" class="st8">Z</tspan><tspan dy="-0.289em" class="st9" v:baseFontSize="8">t</tspan><tspan
						dy="0.193em" class="st8">=0.01+j0.08 pu on 500 MVA<v:newlineChar/></tspan><tspan x="4" dy="1.2em"
						class="st8">I</tspan><tspan dy="-0.289em" class="st9" v:baseFontSize="8">mag</tspan><tspan dy="0.193em"
						class="st8">=0.01 pu, P</tspan><tspan dy="-0.289em" class="st9" v:baseFontSize="8">NLL</tspan><tspan
						dy="0.193em" class="st8">=0.0025 pu</tspan></text>		</g>
		<g id="shape20-77" v:mID="20" v:groupContext="shape" transform="translate(229.5,-81)">
			<title>Sheet.20</title>
			<path d="M0 110.98 L28.03 110.98" class="st10"/>
		</g>
		<g id="shape21-83" v:mID="21" v:groupContext="shape" transform="translate(210.075,-69.8223)">
			<title>Sheet.21</title>
			<desc>V,I P,Q</desc>
			<v:textBlock v:margins="rect(4,4,4,4)"/>
			<v:textRect cx="15.75" cy="99.5879" width="31.5" height="22.7812"/>
			<rect x="0" y="88.1973" width="31.5" height="22.7812" class="st5"/>
			<text x="4" y="97.19" class="st12" v:langID="1033"><v:paragraph/><v:tabList/>V,I<v:newlineChar/><tspan x="4" dy="1.2em"
						class="st8">P,Q</tspan></text>		</g>
		<g id="shape22-87" v:mID="22" v:groupContext="shape" transform="translate(235.2,-54.7285)">
			<title>Switch.22</title>
			<path d="M0 103.1 L11.7 103.1 L24.3 95.23" class="st2"/>
			<path d="M22.72 103.1 L36 103.1" class="st2"/>
		</g>
		<g id="shape23-91" v:mID="23" v:groupContext="shape" transform="translate(268.95,-60.3535)">
			<title>Node.23</title>
			<path d="M0 108.73 A2.25 2.25 0 0 1 4.5 108.73 A2.25 2.25 0 1 1 0 108.73 Z" class="st3"/>
		</g>
		<g id="shape24-93" v:mID="24" v:groupContext="shape" transform="translate(271.2,-49.1035)">
			<title>Transformer</title>
			<v:custProps>
				<v:cp v:nameU="DisplayResults" v:lbl="Display Results" v:prompt="Controls display of P and Q flow" v:type="3"
						v:langID="1033" v:val="VT0(1):26"/>
				<v:cp v:nameU="Circuit" v:lbl="Circuit" v:prompt="Circuit Number" v:type="1" v:format="1;2;3;4;5;6;7;8;9"
						v:langID="1033" v:val="VT0(1):26"/>
			</v:custProps>
			<path d="M0 97.48 L36 97.48" class="st2"/>
			<path d="M13.5 83.98 L22.5 88.48 L13.5 92.98 L22.5 97.48 L13.5 101.98 L22.5 106.48 L13.5 110.98" class="st2"/>
		</g>
		<g id="shape25-97" v:mID="25" v:groupContext="shape" transform="translate(264.45,-68.625)">
			<title>Sheet.25</title>
			<desc>3</desc>
			<v:textBlock v:margins="rect(4,4,4,4)"/>
			<v:textRect cx="6.75" cy="107.604" width="13.5" height="6.75"/>
			<rect x="0" y="104.229" width="13.5" height="6.75" class="st5"/>
			<text x="4.22" y="110.6" class="st6" v:langID="1033"><v:paragraph v:horizAlign="1"/><v:tabList/>3</text>		</g>
	</g>
</svg>
